<mxfile host="" modified="2020-06-27T15:53:42.765Z" agent="5.0 (Windows NT 10.0; Win64; x64) AppleWebKit/537.36 (KHTML, like Gecko) Code/1.46.1 Chrome/78.0.3904.130 Electron/7.3.1 Safari/537.36" etag="WVpyySbBd41Ltp9ZqDMZ" version="13.1.3">
    <diagram id="6hGFLwfOUW9BJ-s0fimq" name="Page-1">
        <mxGraphModel dx="1305" dy="800" grid="1" gridSize="10" guides="1" tooltips="1" connect="1" arrows="1" fold="1" page="1" pageScale="1" pageWidth="1169" pageHeight="827" math="0" shadow="0">
            <root>
                <mxCell id="0"/>
                <mxCell id="1" parent="0"/>
                <mxCell id="2" value="&lt;font style=&quot;font-size: 16px&quot;&gt;Zen Garden&lt;/font&gt;" style="rounded=1;whiteSpace=wrap;html=1;fillColor=#a0522d;strokeColor=none;fontColor=#ffffff;" vertex="1" parent="1">
                    <mxGeometry x="525" y="14" width="120" height="50" as="geometry"/>
                </mxCell>
                <mxCell id="38" value="" style="edgeStyle=none;rounded=1;orthogonalLoop=1;jettySize=auto;html=1;entryX=0.5;entryY=0;entryDx=0;entryDy=0;exitX=0;exitY=0.5;exitDx=0;exitDy=0;" edge="1" parent="1" source="19" target="23">
                    <mxGeometry relative="1" as="geometry">
                        <mxPoint x="585" y="234" as="targetPoint"/>
                        <Array as="points">
                            <mxPoint x="180" y="119"/>
                        </Array>
                    </mxGeometry>
                </mxCell>
                <mxCell id="49" value="" style="edgeStyle=none;rounded=1;orthogonalLoop=1;jettySize=auto;html=1;entryX=0.5;entryY=0;entryDx=0;entryDy=0;" edge="1" parent="1" source="19" target="47">
                    <mxGeometry relative="1" as="geometry">
                        <mxPoint x="970" y="119" as="targetPoint"/>
                        <Array as="points">
                            <mxPoint x="1020" y="121"/>
                        </Array>
                    </mxGeometry>
                </mxCell>
                <mxCell id="19" value="&lt;font style=&quot;font-size: 16px&quot;&gt;Page Wrapper&lt;/font&gt;" style="rounded=1;whiteSpace=wrap;html=1;fillColor=#a0522d;strokeColor=none;fontColor=#ffffff;" vertex="1" parent="1">
                    <mxGeometry x="525" y="94" width="120" height="50" as="geometry"/>
                </mxCell>
                <mxCell id="14" value="" style="endArrow=none;html=1;" edge="1" parent="1">
                    <mxGeometry width="50" height="50" relative="1" as="geometry">
                        <mxPoint x="584" y="94" as="sourcePoint"/>
                        <mxPoint x="584" y="74" as="targetPoint"/>
                    </mxGeometry>
                </mxCell>
                <mxCell id="26" value="" style="edgeStyle=none;rounded=1;orthogonalLoop=1;jettySize=auto;html=1;" edge="1" parent="1" source="23" target="25">
                    <mxGeometry relative="1" as="geometry"/>
                </mxCell>
                <mxCell id="40" value="" style="edgeStyle=none;rounded=1;orthogonalLoop=1;jettySize=auto;html=1;entryX=0.5;entryY=0;entryDx=0;entryDy=0;" edge="1" parent="1" source="23" target="41">
                    <mxGeometry relative="1" as="geometry">
                        <mxPoint x="180" y="314" as="targetPoint"/>
                    </mxGeometry>
                </mxCell>
                <mxCell id="23" value="&lt;font style=&quot;font-size: 16px&quot;&gt;Zen Intro&lt;/font&gt;" style="rounded=1;whiteSpace=wrap;html=1;fillColor=#a0522d;strokeColor=none;fontColor=#ffffff;" vertex="1" parent="1">
                    <mxGeometry x="120" y="174" width="120" height="50" as="geometry"/>
                </mxCell>
                <mxCell id="43" value="" style="edgeStyle=none;rounded=1;orthogonalLoop=1;jettySize=auto;html=1;" edge="1" parent="1" source="25" target="42">
                    <mxGeometry relative="1" as="geometry"/>
                </mxCell>
                <mxCell id="25" value="&lt;font style=&quot;font-size: 16px&quot;&gt;Carousel&amp;nbsp;Wrapper&lt;/font&gt;" style="rounded=1;whiteSpace=wrap;html=1;fillColor=#6d8764;strokeColor=none;fontColor=#ffffff;" vertex="1" parent="1">
                    <mxGeometry x="10" y="254" width="140" height="60" as="geometry"/>
                </mxCell>
                <mxCell id="45" value="" style="edgeStyle=none;rounded=1;orthogonalLoop=1;jettySize=auto;html=1;" edge="1" parent="1" source="42" target="44">
                    <mxGeometry relative="1" as="geometry"/>
                </mxCell>
                <mxCell id="42" value="&lt;font style=&quot;font-size: 16px&quot;&gt;Carousel&lt;/font&gt;" style="rounded=1;whiteSpace=wrap;html=1;fillColor=#6d8764;strokeColor=none;fontColor=#ffffff;" vertex="1" parent="1">
                    <mxGeometry x="17.5" y="344" width="125" height="50" as="geometry"/>
                </mxCell>
                <mxCell id="44" value="&lt;font style=&quot;font-size: 16px&quot;&gt;Banner&lt;/font&gt;" style="rounded=1;whiteSpace=wrap;html=1;fillColor=#a0522d;strokeColor=none;fontColor=#ffffff;" vertex="1" parent="1">
                    <mxGeometry x="17.5" y="424" width="125" height="50" as="geometry"/>
                </mxCell>
                <mxCell id="27" value="&lt;font style=&quot;font-size: 16px&quot;&gt;Zen Supporting&lt;/font&gt;" style="rounded=1;whiteSpace=wrap;html=1;fillColor=#a0522d;strokeColor=none;fontColor=#ffffff;" vertex="1" parent="1">
                    <mxGeometry x="400" y="174" width="120" height="50" as="geometry"/>
                </mxCell>
                <mxCell id="41" value="&lt;span style=&quot;font-size: 16px&quot;&gt;Zen Summary&lt;/span&gt;" style="rounded=1;whiteSpace=wrap;html=1;fillColor=#a0522d;strokeColor=#6D1F00;fontColor=#ffffff;" vertex="1" parent="1">
                    <mxGeometry x="190" y="254" width="120" height="60" as="geometry"/>
                </mxCell>
                <mxCell id="46" value="&lt;font style=&quot;font-size: 16px&quot;&gt;Footer&lt;/font&gt;" style="rounded=1;whiteSpace=wrap;html=1;fillColor=#a0522d;strokeColor=none;fontColor=#ffffff;" vertex="1" parent="1">
                    <mxGeometry x="680" y="174" width="120" height="50" as="geometry"/>
                </mxCell>
                <mxCell id="47" value="&lt;font style=&quot;font-size: 16px&quot;&gt;Sidebar&lt;/font&gt;" style="rounded=1;whiteSpace=wrap;html=1;fillColor=#a0522d;strokeColor=none;fontColor=#ffffff;" vertex="1" parent="1">
                    <mxGeometry x="960" y="174" width="120" height="50" as="geometry"/>
                </mxCell>
                <mxCell id="51" value="" style="endArrow=classic;html=1;entryX=0.5;entryY=0;entryDx=0;entryDy=0;" edge="1" parent="1" target="27">
                    <mxGeometry width="50" height="50" relative="1" as="geometry">
                        <mxPoint x="460" y="120" as="sourcePoint"/>
                        <mxPoint x="600" y="164" as="targetPoint"/>
                    </mxGeometry>
                </mxCell>
                <mxCell id="54" value="" style="endArrow=classic;html=1;entryX=0.5;entryY=0;entryDx=0;entryDy=0;" edge="1" parent="1">
                    <mxGeometry width="50" height="50" relative="1" as="geometry">
                        <mxPoint x="740" y="120" as="sourcePoint"/>
                        <mxPoint x="740" y="174" as="targetPoint"/>
                    </mxGeometry>
                </mxCell>
            </root>
        </mxGraphModel>
    </diagram>
</mxfile>